<?xml version="1.0" standalone="no"?>
<!DOCTYPE svg PUBLIC "-//W3C//DTD SVG 1.1//EN" "http://www.w3.org/Graphics/SVG/1.1/DTD/svg11.dtd" >
<svg xmlns="http://www.w3.org/2000/svg">
<metadata>Generated by IcoMoon</metadata>
<defs>
<font id="icomoon" horiz-adv-x="1024">
<font-face units-per-em="1024" ascent="960" descent="-64" />
<missing-glyph horiz-adv-x="1024" />
<glyph unicode="&#x20;" horiz-adv-x="512" d="" />
<glyph unicode="&#xe900;" glyph-name="add" d="M64 512h896c35.346 0 64-28.654 64-64s-28.654-64-64-64h-896c-35.346 0-64 28.654-64 64s28.654 64 64 64zM512 960c35.346 0 64-28.456 64-64.056v-895.888c0-35.377-28.407-64.056-64-64.056v0c-35.346 0-64 28.456-64 64.056v895.888c0 35.377 28.407 64.056 64 64.056v0z" />
<glyph unicode="&#xe901;" glyph-name="addall" horiz-adv-x="853" d="M358.1 783.645v105.244h-240.767c-62.578 0-117.333-54.756-117.333-117.333v-718.222c0-62.578 54.756-117.333 117.333-117.333h547.556c62.578 0 117.333 54.756 117.333 117.333 0 0 0 179.769 0 338.002 0 81.174 0 79.923 0 79.923s-42.555 0-100.992 0v-397.089c0-23.467-15.644-39.111-39.111-39.111h-502.741c-23.467 0-39.111 15.644-39.111 39.111v670.365c0 23.467 15.644 39.111 39.111 39.111h218.722zM601.177 857.335c-0.081 18.621-19.935 33.716-43.109 33.716h13.507c-23.727 0-42.961-19.761-42.961-42.828v-141.827h-139.361c-23.242 0-42.083-18.627-42.083-42.083v10.35c0-23.242 19.418-42.083 42.083-42.083h139.361v-141.769c0-23.643 19.828-42.81 43.049-42.81h-13.535c23.775 0 43.049 19.753 43.049 42.81v141.769h139.361c23.242 0 42.083 18.627 42.083 42.083v-10.35c0 23.242-19.418 42.083-42.083 42.083h-139.361v108.089c0 23.665-0.081 61.285-0.147 76.565l0.147-33.716z" />
<glyph unicode="&#xe902;" glyph-name="arrow_up" horiz-adv-x="1593" d="M1507.425-64l85.184 83.441-796.313 881.177-796.296-881.177 85.18-83.441 711.168 797.868z" />
<glyph unicode="&#xe903;" glyph-name="reorder" horiz-adv-x="796" d="M702.718 604.543c39.053-46.431 24.124-84.071-33.481-84.071h-614.287c-57.543 0-71.915 38.375-33.481 84.071l269.913 320.909c39.053 46.431 102.988 45.696 141.422 0l269.913-320.909zM21.757 307.040c-39.053 46.431-24.124 84.071 33.481 84.071h614.287c57.543 0 71.915-38.375 33.481-84.071l-269.913-320.909c-39.053-46.431-102.988-45.696-141.422 0l-269.913 320.909z" />
<glyph unicode="&#xe904;" glyph-name="reorder-up" horiz-adv-x="796" d="M93.727 291.457l269.913-320.909c38.434-45.696 102.369-46.431 141.422 0l269.913 320.909c38.434 45.696 24.063 84.071-33.481 84.071h-614.287c-57.604 0-72.533-37.64-33.481-84.071zM154.667 328.882h556.444c42.648 0 4.136-38.684-24.349-72.551l-200.042-237.837c-28.943-34.412-76.328-33.867-104.813 0l-200.042 237.837c-28.943 34.412-69.891 72.551-27.198 72.551zM774.687 588.96c39.053-46.431 24.124-84.071-33.481-84.071h-614.287c-57.543 0-71.915 38.375-33.481 84.071l269.913 320.909c39.053 46.431 102.988 45.696 141.422 0l269.913-320.909z" />
<glyph unicode="&#xe905;" glyph-name="reorder-down" horiz-adv-x="796" d="M702.718 604.543l-269.913 320.909c-38.434 45.696-102.369 46.431-141.422 0l-269.913-320.909c-38.434-45.696-24.063-84.071 33.481-84.071h614.287c57.604 0 72.533 37.64 33.481 84.071zM641.778 567.118h-556.444c-42.648 0-4.136 38.684 24.349 72.551l200.042 237.837c28.943 34.412 76.328 33.867 104.813 0l200.042-237.837c28.943-34.412 69.891-72.551 27.198-72.551zM21.757 307.040c-39.053 46.431-24.124 84.071 33.481 84.071h614.287c57.543 0 71.915-38.375 33.481-84.071l-269.913-320.909c-39.053-46.431-102.988-45.696-141.422 0l-269.913 320.909z" />
<glyph unicode="&#xe906;" glyph-name="arrow-down" horiz-adv-x="1593" d="M91.031 960l-85.184-83.441 796.313-881.177 796.296 881.177-85.18 83.441-711.168-797.868z" />
<glyph unicode="&#xe907;" glyph-name="arrow-right" horiz-adv-x="658" d="M-3.579 905.059l53.641 54.761 566.471-511.916-566.471-511.904-53.641 54.758 512.915 457.179z" />
<glyph unicode="&#xe908;" glyph-name="arrow-left" horiz-adv-x="658" d="M658.286 905.059l-53.641 54.761-566.471-511.916 566.471-511.904 53.641 54.758-512.915 457.179z" />
<glyph unicode="&#xe909;" glyph-name="arrow-dropdown" d="M128.005 657.026l386.971-420.571 381.020 422.746z" />
<glyph unicode="&#xe90a;" glyph-name="arrow-dropdown-right" horiz-adv-x="731" d="M217.086 83.309c-59.713-54.699-108.12-33.257-108.12 46.746v711.027c0 80.516 48.565 101.3 108.12 46.746l439.135-402.259-439.135-402.259z" />
<glyph unicode="&#xe90b;" glyph-name="info" horiz-adv-x="1088" d="M542.538-63.393c-281.536 0-510.583 229.293-510.583 511.132s229.046 511.142 510.583 511.142c281.537 0 510.583-229.305 510.583-511.143s-229.048-511.13-510.583-511.13v0zM542.538 884.080c-240.333 0-435.864-195.752-435.864-436.344s195.531-436.331 435.864-436.331c240.333 0 435.864 195.74 435.864 436.332s-195.531 436.342-435.864 436.342v0zM467.818 670.661c0-41.311 33.453-74.8 74.72-74.8s74.72 33.489 74.72 74.8c0 41.311-33.453 74.8-74.72 74.8s-74.72-33.489-74.72-74.8v0zM541.998 95.75c-34.392 0-61.983 27.904-61.983 62.333v324.132c0 34.43 27.591 62.333 61.983 62.333s61.983-27.904 61.983-62.333v-324.132c0-34.429-27.591-62.333-61.983-62.333v0z" />
<glyph unicode="&#xe90c;" glyph-name="question" horiz-adv-x="1025" d="M512.011-64c-282.317 0-512.011 229.672-512.011 512.011 0 282.296 229.693 511.989 512.011 511.989s512.011-229.693 512.011-512.011c0-282.296-229.715-511.989-512.011-511.989v0zM512.011 886.859c-241.986 0-438.848-196.862-438.848-438.848s196.862-438.848 438.848-438.848c241.986 0 438.848 196.862 438.848 438.848s-196.862 438.848-438.848 438.848v0zM695.45 504.385c-9.651-19.814-23.265-44.528-54.67-74.079-31.383-29.593-52.219-24.395-62.489-36.837-10.248-12.528-18.024-27.463-23.329-44.826-5.262-17.385-3.579-9.651-3.579-18.791h-78.787c0 11.569-3.899 10.248 1.683 30.68 5.603 20.411 13.976 38.243 25.183 53.498 11.207 15.233 31.404 11.356 60.635 40.949s48.044 51.048 56.417 64.47c8.416 13.422 12.591 33.386 12.591 59.911 0 26.546-9.651 50.004-28.89 70.436-19.281 20.411-47.277 30.637-83.964 30.637-82.686 0-122.421-44.23-122.421-140.552h-78.787c1.257 43.889 3.579 73.312 12.89 96.172 9.353 22.861 22.307 43.271 42.802 61.253 20.538 17.982 43.378 31.234 68.539 39.798 25.204 8.543 51.793 12.826 79.746 12.826 56.587 0 102.713-19.217 140.338-51.857 34.983-30.339 49.535-75.442 49.535-127.427 0.043-24.331-3.792-46.446-13.444-66.26v0zM551.404 172.319h-105.035v105.035h105.035v-105.035z" />
<glyph unicode="&#xe90d;" glyph-name="calender" horiz-adv-x="1088" d="M485.379 533.333h170.666v-85.332h-170.666v85.332zM1040.045 874.666h-42.667v-170.666h-256v170.666h-341.332v-170.666h-256v170.666h-42.667c-23.563 0-42.666-19.104-42.666-42.666v-853.333c0-23.566 19.104-42.667 42.666-42.667h938.666c23.566 0 42.667 19.101 42.667 42.667v853.333c0 23.562-19.101 42.666-42.667 42.666v0zM997.378 21.334h-853.333v597.332h853.333v-597.332zM485.379 192.001h170.666v-85.334h-170.666v85.334zM826.711 960h85.334v-170.666h-85.334v170.666zM229.379 192.001h170.667v-85.334h-170.667v85.334zM229.379 960h85.333v-170.666h-85.333v170.666zM741.379 533.333h170.664v-85.332h-170.664v85.332zM485.38 362.666h170.666v-85.332h-170.666v85.332zM229.379 362.666h170.667v-85.332h-170.667v85.332zM741.38 362.666h170.664v-85.332h-170.664v85.332zM741.379 192h170.664v-85.332h-170.664v85.332zM229.379 533.333h170.666v-85.332h-170.666v85.332z" />
<glyph unicode="&#xe90e;" glyph-name="plan" horiz-adv-x="853" d="M0 49.498v797.003c0 62.718 50.748 113.498 113.349 113.498h409.031l276.651-274.946v-635.289c0-62.28-50.875-113.765-113.633-113.765h-571.764c-62.435 0-113.633 50.815-113.633 113.498zM125.985 5.027c0 0 491.060 0 548.556 0s57.496 57.797 57.496 57.797v598.136h-196.336c-18.088 0-32.725 14.862-32.725 33.228v199.358h-389.036c0 0-48.491 0-48.491-50.917s-3.38-734.804 0-781.567c3.38-46.763 60.537-56.034 60.537-56.034zM633.866 449.286v66.45h-470.252v-66.45zM633.866 316.377v66.454h-470.252v-66.454zM633.866 183.473v66.455h-470.252v-66.455z" />
<glyph unicode="&#xe90f;" glyph-name="download" d="M535.981 209.082c-7.954-12.645-24.319-21.316-43.234-21.316-20.492 0-37.988 10.174-45.043 24.553-1.827 1.44-3.589 3.002-5.275 4.686l-252.143 252.143c-23.214 23.193-23.214 60.811 0 84.047 23.214 23.193 60.833 23.193 84.047 0l170.041-170.041v531.585c0 21.38 21.639 38.7 48.372 38.7s48.372-17.32 48.372-38.7v-534.346l172.801 172.803c23.214 23.214 60.811 23.214 84.047 0 23.195-23.214 23.195-60.833 0-84.047l-252.139-252.101c-3.055-3.057-6.359-5.713-9.847-7.966zM980.622 49.556c0-32.047-25.98-58.047-58.047-58.047h-807.136c-32.068 0-58.047 26-58.047 58.047v0c0 32.049 25.98 58.047 58.047 58.047h807.136c32.068 0 58.047-25.998 58.047-58.047v0 0z" />
<glyph unicode="&#xe910;" glyph-name="delete" horiz-adv-x="878" d="M51.2 886.857h775.314c28.277 0 51.2-22.923 51.2-51.2v0c0-28.277-22.923-51.2-51.2-51.2h-775.314c-28.277 0-51.2 22.923-51.2 51.2v0c0 28.277 22.923 51.2 51.2 51.2zM343.771 652.799v0c28.277 0 51.2-22.923 51.2-51.2v-409.6c0-28.277-22.923-51.2-51.2-51.2v0c-28.277 0-51.2 22.923-51.2 51.2v409.6c0 28.277 22.923 51.2 51.2 51.2zM555.885 652.799v0c28.277 0 51.2-22.923 51.2-51.2v-409.6c0-28.277-22.923-51.2-51.2-51.2v0c-28.277 0-51.2 22.923-51.2 51.2v409.6c0 28.277 22.923 51.2 51.2 51.2zM420.571 960h36.571c20.198 0 36.571-16.374 36.571-36.571v-73.143c0-20.198-16.374-36.571-36.571-36.571h-36.571c-20.198 0-36.571 16.374-36.571 36.571v73.143c0 20.198 16.374 36.571 36.571 36.571zM124.343 740.571v0c28.277 0 51.2-22.923 51.2-51.2v-43.886c0-28.277-22.923-51.2-51.2-51.2v0c-28.277 0-51.2 22.923-51.2 51.2v43.886c0 28.277 22.923 51.2 51.2 51.2zM753.372 740.571v0c28.277 0 51.2-22.923 51.2-51.2v-43.886c0-28.277-22.923-51.2-51.2-51.2v0c-28.277 0-51.2 22.923-51.2 51.2v43.886c0 28.277 22.923 51.2 51.2 51.2zM175.542 667.429h-102.4v-585.171c0-81.348 65.482-146.258 146.258-146.258h438.913c81.348 0 146.258 65.482 146.258 146.258v585.171h-102.4v-556.529c0-40.041-32.943-72.5-73.225-72.5h-380.178c-40.441 0-73.225 32.925-73.225 72.5v556.529z" />
<glyph unicode="&#xe911;" glyph-name="start" horiz-adv-x="1097" d="M548.571-64c282.77 0 512 229.23 512 512s-229.23 512-512 512c-282.77 0-512-229.23-512-512s229.23-512 512-512zM495.948 185.271c-29.934-27.42-54.2-16.421-54.2 23.674v471.381c0 40.495 24.261 51.099 54.2 23.674l228.942-209.717c29.934-27.42 29.939-71.872 0-99.297l-228.942-209.717z" />
<glyph unicode="&#xe912;" glyph-name="stop" horiz-adv-x="1097" d="M548.571-64c282.77 0 512 229.23 512 512s-229.23 512-512 512c-282.77 0-512-229.23-512-512s229.23-512 512-512zM329.143 667.646c0 40.276 32.466 72.926 73.143 72.926 40.396 0 73.143-33.136 73.143-72.926v-439.292c0-40.276-32.466-72.926-73.143-72.926-40.396 0-73.143 33.136-73.143 72.926v439.292zM621.714 667.646c0 40.276 32.466 72.926 73.143 72.926 40.396 0 73.143-33.136 73.143-72.926v-439.292c0-40.276-32.466-72.926-73.143-72.926-40.396 0-73.143 33.136-73.143 72.926v439.292z" />
<glyph unicode="&#xe913;" glyph-name="cancel" d="M508.422 949.448c-272.567 0-493.526-220.959-493.526-493.526s220.959-493.526 493.526-493.526c272.567 0 493.526 220.959 493.526 493.526s-220.959 493.526-493.526 493.526v0zM687.267 217.42l-178.845 178.845-178.846-178.845-59.657 59.658 178.845 178.845-178.845 178.844 59.611 59.657 178.879-178.858 178.859 178.858 59.658-59.657-178.858-178.854 178.856-178.834-59.658-59.658z" />
<glyph unicode="&#xe914;" glyph-name="edit" horiz-adv-x="1097" d="M1077.721 803.54l-106.003-105.789-141.36 141.051 106.003 105.789c19.532 19.485 51.184 19.485 70.692 0l70.668-70.526c19.533-19.484 19.533-51.040 0-70.525v0zM335.348 345.075l141.361-141.098-188.41-46.954 47.049 188.052zM936.361 662.488l-424.034-423.25-141.361 141.050 424.059 423.25 141.337-141.050zM171.175 37.164h769.867v482.32l100.419 100.419v-632.924c0-27.753-22.479-50.185-50.209-50.185h-870.286c-27.73 0-50.21 22.432-50.21 50.185v870.263c0 27.753 22.479 50.233 50.21 50.233h635.751l-100.419-100.419h-485.123v-769.892z" />
<glyph unicode="&#xe915;" glyph-name="search" d="M641.37 223.096c-66.39-47.307-147.622-75.131-235.353-75.131-224.237 0-406.017 181.781-406.017 406.017s181.781 406.017 406.017 406.017c224.237 0 406.017-181.781 406.017-406.017 0-87.731-27.826-168.963-75.131-235.353l266.768-266.768c26.281-26.281 26.063-68.333-0.009-94.405l-1.12-1.12c-26.005-26.005-68.338-26.076-94.405-0.009l-266.768 266.768zM406.017 243.499c171.475 0 310.484 139.009 310.484 310.484s-139.009 310.484-310.484 310.484c-171.475 0-310.484-139.009-310.484-310.484s139.009-310.484 310.484-310.484v0 0z" />
<glyph unicode="&#xe916;" glyph-name="avator" horiz-adv-x="878" d="M520.873-10.062h-193.634c-182.285 0-326.299 0-326.299 92.679v19.080c0 177.287 146.356 321.476 326.299 321.476h193.634c179.943 0 326.327-144.227 326.327-321.476v-19.080c0-92.679-151.217-92.679-326.327-92.679v0zM414.376 447.709c-142.491 0-258.429 114.309-258.429 254.781 0 140.463 115.938 254.781 258.429 254.781s258.429-114.28 258.429-254.781c0.009-140.51-115.938-254.781-258.429-254.781v0z" />
<glyph unicode="&#xe917;" glyph-name="bulb" d="M533.749 190.645h68.871v48.959l13.774 6.994c92.976 38.468 151.516 129.392 151.516 230.806-3.444 139.883-117.080 251.789-251.379 251.789-137.742 0-247.935-111.906-247.935-251.789 0-101.415 58.54-192.339 151.516-230.806l13.774-6.994v-48.959h58.54v132.889c0 0.686 0.044 1.372 0.13 2.056l-65.557 109.85c-3.444 6.994-3.444 13.988 0 20.982s10.331 10.491 17.218 10.491h141.185c6.887 0 13.774-3.497 17.218-10.491s3.444-13.988 0-20.982l-68.871-115.403v-129.392zM433.886 148.68v-48.959c0-20.982 17.218-38.468 37.879-38.468h92.976c20.661 0 37.879 17.485 37.879 38.468v48.959h-168.734zM554.41 19.289h-79.201v-17.485c0-6.994 6.887-17.485 17.218-17.485h44.766c6.887 0 17.218 6.994 17.218 17.485v17.485zM440.773 24.019c-30.592 11.012-51.653 40.149-51.653 75.703v115.403c-99.863 48.959-161.846 150.374-161.846 265.777 0 160.865 130.855 293.754 289.257 293.754s289.257-132.889 289.257-293.754c0-111.906-65.427-216.818-161.846-265.777v-115.403c-2.694-35.567-24.358-64.713-55.097-75.715v-22.203c0-31.474-24.105-52.456-51.653-52.456h-44.766c-27.548 0-51.653 24.479-51.653 52.456v22.215zM482.096 424.949l34.435-55.953 34.435 55.953h-68.871zM110.193 494.89h-86.089c-10.331 0-20.661 10.491-20.661 20.982s10.331 20.982 20.661 20.982h86.089c10.331 0 20.661-10.491 20.661-20.982s-10.331-20.982-20.661-20.982zM509.644 827.111c-10.331 0-20.661 10.491-20.661 20.982v87.427c0 10.491 10.331 20.982 20.661 20.982s20.661-10.491 20.661-20.982v-87.427c0-10.491-10.331-20.982-20.661-20.982zM988.296 494.89h-86.089c-10.331 0-20.661 10.491-20.661 20.982s10.331 20.982 20.661 20.982h86.089c10.331 0 20.661-10.491 20.661-20.982s-10.331-20.982-20.661-20.982zM244.491 736.188c-6.887 0-10.331 0-13.774 3.497l-61.984 62.947c-10.331 6.994-10.331 20.982-3.444 27.977 10.331 6.994 20.661 10.491 30.992 0l61.984-59.45c6.887-6.994 10.331-20.982 0-27.977-3.444-6.994-10.331-6.994-13.774-6.994zM781.684 732.691c-6.887 0-10.331 3.497-13.774 6.994-6.887 6.994-6.887 20.982 0 27.977l58.54 62.947c6.887 6.994 20.661 6.994 27.548 0s6.887-20.982 0-27.977l-61.984-62.947c0-3.497-6.887-6.994-10.331-6.994z" />
<glyph unicode="&#xe918;" glyph-name="close" d="M403.005 481.57l-377.097-377.097c-20.466-20.466-20.854-54.623-0.026-75.451 20.973-20.973 54.608-20.816 75.451 0.026l377.097 377.097 377.097-377.097c20.466-20.466 54.623-20.854 75.451-0.026 20.973 20.973 20.816 54.609-0.026 75.451l-377.097 377.097 377.097 377.097c20.466 20.466 20.854 54.623 0.026 75.451-20.973 20.973-54.609 20.816-75.451-0.026l-377.097-377.097-377.097 377.097c-20.466 20.466-54.623 20.854-75.451 0.026-20.973-20.973-20.816-54.608 0.026-75.451l377.097-377.097z" />
<glyph unicode="&#xe919;" glyph-name="copy" horiz-adv-x="866" d="M833.739 274.051c-21.806 0-39.483 17.989-39.483 39.661v465.775c0 57.764-50.544 108.308-108.308 108.308h-465.775c-21.904 0-39.661 18.22-39.661 39.483v-6.76c0 21.806 17.989 39.483 39.661 39.483h465.775c101.087 0 180.513-79.426 180.513-180.513v-465.775c0-21.904-18.22-39.661-39.483-39.661h6.76zM108.308-64c-57.764 0-108.308 50.544-108.308 108.308v662.974c0 57.764 50.544 108.308 108.308 108.308h505.436c57.764 0 108.308-50.544 108.308-108.308v-662.974c0-57.764-50.544-108.308-108.308-108.308h-505.436zM72.205 707.282v-662.974c0-21.662 14.441-36.103 36.103-36.103h505.436c21.662 0 36.103 14.441 36.103 36.103v662.974c0 21.662-14.441 36.103-36.103 36.103h-505.436c-21.662 0-36.103-14.441-36.103-36.103zM400.307 547.315c-0.072 16.553-17.721 29.971-39.8 29.971h14.965c-21.908 0-39.669-17.567-39.669-39.735v-124.412h-122.248c-21.564 0-39.044-17.931-39.044-38.929v12.239c0-21.5 17.261-38.929 39.044-38.929h122.248v-124.361c0-21.936 17.626-39.719 39.75-39.719h-14.995c21.953 0 39.75 17.559 39.75 39.719v124.361h122.248c21.564 0 39.044 17.931 39.044 38.929v-12.239c0 21.5-17.261 38.929-39.044 38.929h-122.248v94.644c0 21.833-0.078 57.312-0.131 69.503l0.131-29.971z" />
<glyph unicode="&#xe91a;" glyph-name="cycle" horiz-adv-x="1463" d="M509.222 840.533h447.807v-204.8l314.020 324.267h-761.828c-280.072 0-509.222-230.4-509.222-512 0-136.533 59.409-264.533 144.28-358.4l84.87 85.333c-84.87 76.8-110.332 196.267-110.332 273.067 0 170.667 161.254 392.533 390.404 392.533zM957.030 46.933h-447.807v204.8l-305.533-315.733h753.341c280.072 0 500.735 230.4 500.735 503.467 0 136.533-59.409 264.533-144.28 358.4l-84.87-85.333c59.409-51.2 118.819-153.6 118.819-273.067 0-170.667-144.28-392.533-390.404-392.533z" />
<glyph unicode="&#xe91b;" glyph-name="diagram" horiz-adv-x="1126" d="M54.504 201.773h189.999v-232.113h-189.999v232.113zM344.25 439.751h194.743v-470.088h-194.743v470.088zM634.003 349.17h193.166v-379.508h-193.166v379.508zM923.747 579.47h194.755v-609.806h-194.755v609.806zM2.253 432.075l451.249 402.264 258.971-246.706 244.53 275.88-88.666 90.451h250.171v-234.776l-87.469 87.399-318.573-373.903-261.721 260.923-385.702-348.191-62.79 86.658z" />
<glyph unicode="&#xe91c;" glyph-name="loading" d="M891.075 400.932c-33.37 0-60.463 26.164-60.463 58.425 0 32.231 27.092 58.38 60.463 58.38 33.34 0 60.432-26.149 60.432-58.38 0-32.261-27.092-58.425-60.432-58.425v0zM775.222 678.351c-27.819 0-50.38 21.786-50.38 48.667s22.561 48.667 50.38 48.667c27.819 0 50.38-21.786 50.38-48.667s-22.561-48.667-50.38-48.667v0zM775.222 264.672c38.968 0 70.53-30.512 70.53-68.122 0-37.655-31.561-68.167-70.53-68.167-38.937 0-70.53 30.512-70.53 68.167 0 37.61 31.592 68.122 70.53 68.122v0zM498.206 722.162c-66.772 0-120.879 52.298-120.879 116.804s54.107 116.804 120.879 116.804c66.741 0 120.864-52.298 120.864-116.804s-54.123-116.804-120.864-116.804v0zM223.697 619.957c-59.798 0-108.276 46.859-108.276 104.641s48.478 104.641 108.276 104.641c59.813 0 108.307-46.859 108.307-104.641s-48.494-104.641-108.307-104.641v0zM206.084 459.356c0-53.792-45.107-97.364-100.745-97.364-55.623 0-100.73 43.572-100.73 97.364 0 53.748 45.107 97.349 100.73 97.349 55.638 0 100.745-43.602 100.745-97.349v0zM223.697 279.271c48.679 0 88.143-38.118 88.143-85.171 0-47.039-39.463-85.171-88.143-85.171-48.664 0-88.143 38.133-88.143 85.171 0 47.068 39.479 85.171 88.143 85.171v0zM500.727 157.61c43.113 0 78.045-33.785 78.045-75.429 0-41.674-34.948-75.459-78.045-75.459-43.128 0-78.091 33.785-78.091 75.459 0.015 41.644 34.963 75.429 78.091 75.429v0z" />
<glyph unicode="&#xe91d;" glyph-name="share" d="M142.436-30.802c-76.245 0-138.058 62.123-138.058 138.777v693.828c0 76.625 64.105 154.935 140.349 154.935l322.943 1.151v-112.123h-291.293c-38.122 0-70.19-32.227-70.19-70.541l1.146-625.080c0-38.342 30.921-69.388 69.043-69.388h639.568c38.123 0 70.191 32.228 70.191 70.541v312.244h100.867v-353.264c0.001-76.626-77.949-141.082-154.193-141.082h-690.374zM870.31 623.632v150.067l-463.037-463.876c-22.589-21.608-59.146-21.608-81.734 0-22.54 21.653-22.54 56.681 0 78.336l455.698 456.786h-146.862c-32.104-0.070-56.587 26.081-56.541 56.825s24.437 56.776 56.541 56.8l292.903-1.833c32.107 0.072 57.82-24.629 57.82-55.348l-1.707-277.757c-0.047-30.743-24.482-56.775-56.542-56.823-32.105-0.048-56.587 26.081-56.539 56.823z" />
</font>
</defs>
</svg>
